<svg id="my-svg" width="100%" xmlns="http://www.w3.org/2000/svg" xmlns:xlink="http://www.w3.org/1999/xlink" class="flowchart" style="max-width: 1414.45px; background-color: white;" viewBox="0 0 1414.4453125 728.53125" role="graphics-document document" aria-roledescription="flowchart-v2"><style>#my-svg{font-family:"trebuchet ms",verdana,arial,sans-serif;font-size:16px;fill:#333;}@keyframes edge-animation-frame{from{stroke-dashoffset:0;}}@keyframes dash{to{stroke-dashoffset:0;}}#my-svg .edge-animation-slow{stroke-dasharray:9,5!important;stroke-dashoffset:900;animation:dash 50s linear infinite;stroke-linecap:round;}#my-svg .edge-animation-fast{stroke-dasharray:9,5!important;stroke-dashoffset:900;animation:dash 20s linear infinite;stroke-linecap:round;}#my-svg .error-icon{fill:#552222;}#my-svg .error-text{fill:#552222;stroke:#552222;}#my-svg .edge-thickness-normal{stroke-width:1px;}#my-svg .edge-thickness-thick{stroke-width:3.5px;}#my-svg .edge-pattern-solid{stroke-dasharray:0;}#my-svg .edge-thickness-invisible{stroke-width:0;fill:none;}#my-svg .edge-pattern-dashed{stroke-dasharray:3;}#my-svg .edge-pattern-dotted{stroke-dasharray:2;}#my-svg .marker{fill:#333333;stroke:#333333;}#my-svg .marker.cross{stroke:#333333;}#my-svg svg{font-family:"trebuchet ms",verdana,arial,sans-serif;font-size:16px;}#my-svg p{margin:0;}#my-svg .label{font-family:"trebuchet ms",verdana,arial,sans-serif;color:#333;}#my-svg .cluster-label text{fill:#333;}#my-svg .cluster-label span{color:#333;}#my-svg .cluster-label span p{background-color:transparent;}#my-svg .label text,#my-svg span{fill:#333;color:#333;}#my-svg .node rect,#my-svg .node circle,#my-svg .node ellipse,#my-svg .node polygon,#my-svg .node path{fill:#ECECFF;stroke:#9370DB;stroke-width:1px;}#my-svg .rough-node .label text,#my-svg .node .label text,#my-svg .image-shape .label,#my-svg .icon-shape .label{text-anchor:middle;}#my-svg .node .katex path{fill:#000;stroke:#000;stroke-width:1px;}#my-svg .rough-node .label,#my-svg .node .label,#my-svg .image-shape .label,#my-svg .icon-shape .label{text-align:center;}#my-svg .node.clickable{cursor:pointer;}#my-svg .root .anchor path{fill:#333333!important;stroke-width:0;stroke:#333333;}#my-svg .arrowheadPath{fill:#333333;}#my-svg .edgePath .path{stroke:#333333;stroke-width:1px;}#my-svg .flowchart-link{stroke:#333333;fill:none;}#my-svg .edgeLabel{background-color:rgba(232,232,232, 0.8);text-align:center;}#my-svg .edgeLabel p{background-color:rgba(232,232,232, 0.8);}#my-svg .edgeLabel rect{opacity:0.5;background-color:rgba(232,232,232, 0.8);fill:rgba(232,232,232, 0.8);}#my-svg .labelBkg{background-color:rgba(232, 232, 232, 0.5);}#my-svg .cluster rect{fill:#ffffde;stroke:#aaaa33;stroke-width:1px;}#my-svg .cluster text{fill:#333;}#my-svg .cluster span{color:#333;}#my-svg div.mermaidTooltip{position:absolute;text-align:center;max-width:200px;padding:2px;font-family:"trebuchet ms",verdana,arial,sans-serif;font-size:12px;background:hsl(80, 100%, 96.2745098039%);border:1px solid #aaaa33;border-radius:2px;pointer-events:none;z-index:100;}#my-svg .flowchartTitleText{text-anchor:middle;font-size:18px;fill:#333;}#my-svg rect.text{fill:none;stroke-width:0;}#my-svg .icon-shape,#my-svg .image-shape{background-color:rgba(232,232,232, 0.8);text-align:center;}#my-svg .icon-shape p,#my-svg .image-shape p{background-color:rgba(232,232,232, 0.8);padding:2px;}#my-svg .icon-shape .label rect,#my-svg .image-shape .label rect{opacity:0.5;background-color:rgba(232,232,232, 0.8);fill:rgba(232,232,232, 0.8);}#my-svg .label-icon{display:inline-block;height:1em;overflow:visible;vertical-align:-0.125em;}#my-svg .node .label-icon path{fill:currentColor;stroke:revert;stroke-width:revert;}#my-svg .node .neo-node{stroke:#9370DB;}#my-svg [data-look="neo"].node rect,#my-svg [data-look="neo"].cluster rect,#my-svg [data-look="neo"].node polygon{stroke:#9370DB;filter:drop-shadow(1px 2px 2px rgba(185, 185, 185, 1));}#my-svg [data-look="neo"].node path{stroke:#9370DB;stroke-width:1px;}#my-svg [data-look="neo"].node .outer-path{filter:drop-shadow(1px 2px 2px rgba(185, 185, 185, 1));}#my-svg [data-look="neo"].node .neo-line path{stroke:#9370DB;filter:none;}#my-svg [data-look="neo"].node circle{stroke:#9370DB;filter:drop-shadow(1px 2px 2px rgba(185, 185, 185, 1));}#my-svg [data-look="neo"].node circle .state-start{fill:#000000;}#my-svg [data-look="neo"].icon-shape .icon{fill:#9370DB;filter:drop-shadow(1px 2px 2px rgba(185, 185, 185, 1));}#my-svg [data-look="neo"].icon-shape .icon-neo path{stroke:#9370DB;filter:drop-shadow(1px 2px 2px rgba(185, 185, 185, 1));}#my-svg :root{--mermaid-font-family:"trebuchet ms",verdana,arial,sans-serif;}</style><g><marker id="my-svg_flowchart-v2-pointEnd" class="marker flowchart-v2" viewBox="0 0 10 10" refX="5" refY="5" markerUnits="userSpaceOnUse" markerWidth="8" markerHeight="8" orient="auto"><path d="M 0 0 L 10 5 L 0 10 z" class="arrowMarkerPath" style="stroke-width: 1; stroke-dasharray: 1, 0;"/></marker><marker id="my-svg_flowchart-v2-pointStart" class="marker flowchart-v2" viewBox="0 0 10 10" refX="4.5" refY="5" markerUnits="userSpaceOnUse" markerWidth="8" markerHeight="8" orient="auto"><path d="M 0 5 L 10 10 L 10 0 z" class="arrowMarkerPath" style="stroke-width: 1; stroke-dasharray: 1, 0;"/></marker><marker id="my-svg_flowchart-v2-pointEnd-margin" class="marker flowchart-v2" viewBox="0 0 11.5 14" refX="11.5" refY="7" markerUnits="userSpaceOnUse" markerWidth="10.5" markerHeight="14" orient="auto"><path d="M 0 0 L 11.5 7 L 0 14 z" class="arrowMarkerPath" style="stroke-width: 0; stroke-dasharray: 1, 0;"/></marker><marker id="my-svg_flowchart-v2-pointStart-margin" class="marker flowchart-v2" viewBox="0 0 11.5 14" refX="1" refY="7" markerUnits="userSpaceOnUse" markerWidth="11.5" markerHeight="14" orient="auto"><polygon points="0,7 11.5,14 11.5,0" class="arrowMarkerPath" style="stroke-width: 0; stroke-dasharray: 1, 0;"/></marker><marker id="my-svg_flowchart-v2-circleEnd" class="marker flowchart-v2" viewBox="0 0 10 10" refX="11" refY="5" markerUnits="userSpaceOnUse" markerWidth="11" markerHeight="11" orient="auto"><circle cx="5" cy="5" r="5" class="arrowMarkerPath" style="stroke-width: 1; stroke-dasharray: 1, 0;"/></marker><marker id="my-svg_flowchart-v2-circleStart" class="marker flowchart-v2" viewBox="0 0 10 10" refX="-1" refY="5" markerUnits="userSpaceOnUse" markerWidth="11" markerHeight="11" orient="auto"><circle cx="5" cy="5" r="5" class="arrowMarkerPath" style="stroke-width: 1; stroke-dasharray: 1, 0;"/></marker><marker id="my-svg_flowchart-v2-circleEnd-margin" class="marker flowchart-v2" viewBox="0 0 10 10" refY="5" refX="12.25" markerUnits="userSpaceOnUse" markerWidth="14" markerHeight="14" orient="auto"><circle cx="5" cy="5" r="5" class="arrowMarkerPath" style="stroke-width: 0; stroke-dasharray: 1, 0;"/></marker><marker id="my-svg_flowchart-v2-circleStart-margin" class="marker flowchart-v2" viewBox="0 0 10 10" refX="-2" refY="5" markerUnits="userSpaceOnUse" markerWidth="14" markerHeight="14" orient="auto"><circle cx="5" cy="5" r="5" class="arrowMarkerPath" style="stroke-width: 0; stroke-dasharray: 1, 0;"/></marker><marker id="my-svg_flowchart-v2-crossEnd" class="marker cross flowchart-v2" viewBox="0 0 11 11" refX="12" refY="5.2" markerUnits="userSpaceOnUse" markerWidth="11" markerHeight="11" orient="auto"><path d="M 1,1 l 9,9 M 10,1 l -9,9" class="arrowMarkerPath" style="stroke-width: 2; stroke-dasharray: 1, 0;"/></marker><marker id="my-svg_flowchart-v2-crossStart" class="marker cross flowchart-v2" viewBox="0 0 11 11" refX="-1" refY="5.2" markerUnits="userSpaceOnUse" markerWidth="11" markerHeight="11" orient="auto"><path d="M 1,1 l 9,9 M 10,1 l -9,9" class="arrowMarkerPath" style="stroke-width: 2; stroke-dasharray: 1, 0;"/></marker><marker id="my-svg_flowchart-v2-crossEnd-margin" class="marker cross flowchart-v2" viewBox="0 0 15 15" refX="17.7" refY="7.5" markerUnits="userSpaceOnUse" markerWidth="12" markerHeight="12" orient="auto"><path d="M 1,1 L 14,14 M 1,14 L 14,1" class="arrowMarkerPath" style="stroke-width: 2.5;"/></marker><marker id="my-svg_flowchart-v2-crossStart-margin" class="marker cross flowchart-v2" viewBox="0 0 15 15" refX="-3.5" refY="7.5" markerUnits="userSpaceOnUse" markerWidth="12" markerHeight="12" orient="auto"><path d="M 1,1 L 14,14 M 1,14 L 14,1" class="arrowMarkerPath" style="stroke-width: 2.5; stroke-dasharray: 1, 0;"/></marker><g class="root"><g class="clusters"/><g class="edgePaths"><path d="M758.5,47.5L758.417,51.583C758.333,55.667,758.167,63.833,758.083,71.417C758,79,758,86,758,89.5L758,93" id="my-svg-L_START_TIPO_0" class="edge-thickness-normal edge-pattern-solid edge-thickness-normal edge-pattern-solid flowchart-link" style=";" data-edge="true" data-et="edge" data-id="L_START_TIPO_0" data-points="W3sieCI6NzU4LjUsInkiOjQ3LjV9LHsieCI6NzU4LCJ5Ijo3Mn0seyJ4Ijo3NTgsInkiOjk3fV0=" data-look="classic" marker-end="url(#my-svg_flowchart-v2-pointEnd)"/><path d="M695.722,189.519L628.602,205.815C561.481,222.112,427.241,254.704,360.12,278.251C293,301.797,293,316.297,293,323.547L293,330.797" id="my-svg-L_TIPO_DATOS_0" class="edge-thickness-normal edge-pattern-solid edge-thickness-normal edge-pattern-solid flowchart-link" style=";" data-edge="true" data-et="edge" data-id="L_TIPO_DATOS_0" data-points="W3sieCI6Njk1LjcyMjE0Nzg2ODc1OTQsInkiOjE4OS41MTkwMjI4Njg3NTkzOH0seyJ4IjoyOTMsInkiOjI4Ny4yOTY4NzV9LHsieCI6MjkzLCJ5IjozMzQuNzk2ODc1fV0=" data-look="classic" marker-end="url(#my-svg_flowchart-v2-pointEnd)"/><path d="M758,251.797L758,257.714C758,263.63,758,275.464,758,286.63C758,297.797,758,308.297,758,313.547L758,318.797" id="my-svg-L_TIPO_LOAD_0" class="edge-thickness-normal edge-pattern-solid edge-thickness-normal edge-pattern-solid flowchart-link" style=";" data-edge="true" data-et="edge" data-id="L_TIPO_LOAD_0" data-points="W3sieCI6NzU4LCJ5IjoyNTEuNzk2ODc1fSx7IngiOjc1OCwieSI6Mjg3LjI5Njg3NX0seyJ4Ijo3NTgsInkiOjMyMi43OTY4NzV9XQ==" data-look="classic" marker-end="url(#my-svg_flowchart-v2-pointEnd)"/><path d="M819.069,190.728L879.258,206.823C939.447,222.918,1059.825,255.107,1120.014,278.452C1180.203,301.797,1180.203,316.297,1180.203,323.547L1180.203,330.797" id="my-svg-L_TIPO_CTRL_0" class="edge-thickness-normal edge-pattern-solid edge-thickness-normal edge-pattern-solid flowchart-link" style=";" data-edge="true" data-et="edge" data-id="L_TIPO_CTRL_0" data-points="W3sieCI6ODE5LjA2ODUyMzE5NzYyNjEsInkiOjE5MC43MjgzNTE4MDIzNzM5Nn0seyJ4IjoxMTgwLjIwMzEyNSwieSI6Mjg3LjI5Njg3NX0seyJ4IjoxMTgwLjIwMzEyNSwieSI6MzM0Ljc5Njg3NX1d" data-look="classic" marker-end="url(#my-svg_flowchart-v2-pointEnd)"/><path d="M227.609,388.797L212.674,394.964C197.74,401.13,167.87,413.464,152.935,426.691C138,439.919,138,454.042,138,461.103L138,468.164" id="my-svg-L_DATOS_FWD1_0" class="edge-thickness-normal edge-pattern-solid edge-thickness-normal edge-pattern-solid flowchart-link" style=";" data-edge="true" data-et="edge" data-id="L_DATOS_FWD1_0" data-points="W3sieCI6MjI3LjYwOTM3NSwieSI6Mzg4Ljc5Njg3NX0seyJ4IjoxMzgsInkiOjQyNS43OTY4NzV9LHsieCI6MTM4LCJ5Ijo0NzIuMTY0MDYyNX1d" data-look="classic" marker-end="url(#my-svg_flowchart-v2-pointEnd)"/><path d="M358.391,388.797L373.326,394.964C388.26,401.13,418.13,413.464,433.065,424.691C448,435.919,448,446.042,448,451.103L448,456.164" id="my-svg-L_DATOS_FWD2_0" class="edge-thickness-normal edge-pattern-solid edge-thickness-normal edge-pattern-solid flowchart-link" style=";" data-edge="true" data-et="edge" data-id="L_DATOS_FWD2_0" data-points="W3sieCI6MzU4LjM5MDYyNSwieSI6Mzg4Ljc5Njg3NX0seyJ4Ijo0NDgsInkiOjQyNS43OTY4NzV9LHsieCI6NDQ4LCJ5Ijo0NjAuMTY0MDYyNX1d" data-look="classic" marker-end="url(#my-svg_flowchart-v2-pointEnd)"/><path d="M758,400.797L758,404.964C758,409.13,758,417.464,758,428.691C758,439.919,758,454.042,758,461.103L758,468.164" id="my-svg-L_LOAD_DET_0" class="edge-thickness-normal edge-pattern-solid edge-thickness-normal edge-pattern-solid flowchart-link" style=";" data-edge="true" data-et="edge" data-id="L_LOAD_DET_0" data-points="W3sieCI6NzU4LCJ5Ijo0MDAuNzk2ODc1fSx7IngiOjc1OCwieSI6NDI1Ljc5Njg3NX0seyJ4Ijo3NTgsInkiOjQ3Mi4xNjQwNjI1fV0=" data-look="classic" marker-end="url(#my-svg_flowchart-v2-pointEnd)"/><path d="M758,550.164L758,559.642C758,569.12,758,588.076,758,602.803C758,617.531,758,628.031,758,633.281L758,638.531" id="my-svg-L_DET_BUB_0" class="edge-thickness-normal edge-pattern-solid edge-thickness-normal edge-pattern-solid flowchart-link" style=";" data-edge="true" data-et="edge" data-id="L_DET_BUB_0" data-points="W3sieCI6NzU4LCJ5Ijo1NTAuMTY0MDYyNX0seyJ4Ijo3NTgsInkiOjYwNy4wMzEyNX0seyJ4Ijo3NTgsInkiOjY0Mi41MzEyNX1d" data-look="classic" marker-end="url(#my-svg_flowchart-v2-pointEnd)"/><path d="M1132.867,388.797L1122.056,394.964C1111.245,401.13,1089.622,413.464,1078.811,423.13C1068,432.797,1068,439.797,1068,443.297L1068,446.797" id="my-svg-L_CTRL_BR_0" class="edge-thickness-normal edge-pattern-solid edge-thickness-normal edge-pattern-solid flowchart-link" style=";" data-edge="true" data-et="edge" data-id="L_CTRL_BR_0" data-points="W3sieCI6MTEzMi44Njc0MzE2NDA2MjUsInkiOjM4OC43OTY4NzV9LHsieCI6MTA2OCwieSI6NDI1Ljc5Njg3NX0seyJ4IjoxMDY4LCJ5Ijo0NTAuNzk2ODc1fV0=" data-look="classic" marker-end="url(#my-svg_flowchart-v2-pointEnd)"/><path d="M1068,571.531L1068,577.448C1068,583.365,1068,595.198,1068,606.365C1068,617.531,1068,628.031,1068,633.281L1068,638.531" id="my-svg-L_BR_FLUSH_0" class="edge-thickness-normal edge-pattern-solid edge-thickness-normal edge-pattern-solid flowchart-link" style=";" data-edge="true" data-et="edge" data-id="L_BR_FLUSH_0" data-points="W3sieCI6MTA2OCwieSI6NTcxLjUzMTI1fSx7IngiOjEwNjgsInkiOjYwNy4wMzEyNX0seyJ4IjoxMDY4LCJ5Ijo2NDIuNTMxMjV9XQ==" data-look="classic" marker-end="url(#my-svg_flowchart-v2-pointEnd)"/><path d="M1227.539,388.797L1238.35,394.964C1249.161,401.13,1270.784,413.464,1281.595,428.691C1292.406,443.919,1292.406,462.042,1292.406,471.103L1292.406,480.164" id="my-svg-L_CTRL_JMP_0" class="edge-thickness-normal edge-pattern-solid edge-thickness-normal edge-pattern-solid flowchart-link" style=";" data-edge="true" data-et="edge" data-id="L_CTRL_JMP_0" data-points="W3sieCI6MTIyNy41Mzg4MTgzNTkzNzUsInkiOjM4OC43OTY4NzV9LHsieCI6MTI5Mi40MDYyNSwieSI6NDI1Ljc5Njg3NX0seyJ4IjoxMjkyLjQwNjI1LCJ5Ijo0ODQuMTY0MDYyNX1d" data-look="classic" marker-end="url(#my-svg_flowchart-v2-pointEnd)"/></g><g class="edgeLabels"><g class="edgeLabel"><g class="label" data-id="L_START_TIPO_0" transform="translate(0, 0)"><text y="-10.1" text-anchor="middle"><tspan class="text-outer-tspan row" x="0" y="-0.1em" dy="1.1em" text-anchor="middle"/></text></g></g><g><rect class="background" style="stroke: none"/></g><g class="edgeLabel" transform="translate(293, 287.296875)"><g class="label" data-id="L_TIPO_DATOS_0" transform="translate(0, -10.5)"><g><rect class="background" style="" x="-22.8984375" y="0" width="45.796875" height="21"/><text y="-10.1" text-anchor="middle" style=""><tspan class="text-outer-tspan row" x="0" y="-0.1em" dy="1.1em" text-anchor="middle"><tspan font-style="normal" class="text-inner-tspan" font-weight="normal">Datos</tspan></tspan></text></g></g></g><g class="edgeLabel" transform="translate(758, 287.296875)"><g class="label" data-id="L_TIPO_LOAD_0" transform="translate(-0.05078125, -10.5)"><g><rect class="background" style="" x="-39.3515625" y="0" width="78.8046875" height="21"/><text y="-10.1" text-anchor="middle" style=""><tspan class="text-outer-tspan row" x="0" y="-0.1em" dy="1.1em" text-anchor="middle"><tspan font-style="normal" class="text-inner-tspan" font-weight="normal">Carga-uso</tspan></tspan></text></g></g></g><g class="edgeLabel" transform="translate(1180.203125, 287.296875)"><g class="label" data-id="L_TIPO_CTRL_0" transform="translate(0, -10.5)"><g><rect class="background" style="" x="-27.7890625" y="0" width="55.578125" height="21"/><text y="-10.1" text-anchor="middle" style=""><tspan class="text-outer-tspan row" x="0" y="-0.1em" dy="1.1em" text-anchor="middle"><tspan font-style="normal" class="text-inner-tspan" font-weight="normal">Control</tspan></tspan></text></g></g></g><g class="edgeLabel"><g class="label" data-id="L_DATOS_FWD1_0" transform="translate(0, 0)"><text y="-10.1" text-anchor="middle"><tspan class="text-outer-tspan row" x="0" y="-0.1em" dy="1.1em" text-anchor="middle"/></text></g></g><g><rect class="background" style="stroke: none"/></g><g class="edgeLabel"><g class="label" data-id="L_DATOS_FWD2_0" transform="translate(0, 0)"><text y="-10.1" text-anchor="middle"><tspan class="text-outer-tspan row" x="0" y="-0.1em" dy="1.1em" text-anchor="middle"/></text></g></g><g><rect class="background" style="stroke: none"/></g><g class="edgeLabel"><g class="label" data-id="L_LOAD_DET_0" transform="translate(0, 0)"><text y="-10.1" text-anchor="middle"><tspan class="text-outer-tspan row" x="0" y="-0.1em" dy="1.1em" text-anchor="middle"/></text></g></g><g><rect class="background" style="stroke: none"/></g><g class="edgeLabel"><g class="label" data-id="L_DET_BUB_0" transform="translate(0, 0)"><text y="-10.1" text-anchor="middle"><tspan class="text-outer-tspan row" x="0" y="-0.1em" dy="1.1em" text-anchor="middle"/></text></g></g><g><rect class="background" style="stroke: none"/></g><g class="edgeLabel"><g class="label" data-id="L_CTRL_BR_0" transform="translate(0, 0)"><text y="-10.1" text-anchor="middle"><tspan class="text-outer-tspan row" x="0" y="-0.1em" dy="1.1em" text-anchor="middle"/></text></g></g><g><rect class="background" style="stroke: none"/></g><g class="edgeLabel" transform="translate(1068, 607.03125)"><g class="label" data-id="L_BR_FLUSH_0" transform="translate(-0.16015625, -10.5)"><g><rect class="background" style="" x="-57.6015625" y="0" width="115.5234375" height="21"/><text y="-10.1" text-anchor="middle" style=""><tspan class="text-outer-tspan row" x="0" y="-0.1em" dy="1.1em" text-anchor="middle"><tspan font-style="normal" class="text-inner-tspan" font-weight="normal">Resuelto</tspan><tspan font-style="normal" class="text-inner-tspan" font-weight="normal"> en</tspan><tspan font-style="normal" class="text-inner-tspan" font-weight="normal"> EX</tspan></tspan></text></g></g></g><g class="edgeLabel"><g class="label" data-id="L_CTRL_JMP_0" transform="translate(0, 0)"><text y="-10.1" text-anchor="middle"><tspan class="text-outer-tspan row" x="0" y="-0.1em" dy="1.1em" text-anchor="middle"/></text></g></g><g><rect class="background" style="stroke: none"/></g></g><g class="nodes"><g class="node default" id="my-svg-flowchart-START-0" data-look="classic" transform="translate(758, 27.5)"><g class="basic label-container outer-path"><path d="M-55.140625 -19.5 C-21.9016676461423 -19.5, 11.3372897077154 -19.5, 55.140625 -19.5 C55.140625 -19.5, 55.140625 -19.5, 55.140625 -19.5 C55.63535415629887 -19.48413499888938, 56.130083312597726 -19.468269997778762, 56.3899942896239 -19.45993515863156 C56.68988477643579 -19.431005084039896, 56.98977526324767 -19.40207500944823, 57.634229652847864 -19.3399052695533 C57.91258822469954 -19.294902414359285, 58.19094679655122 -19.24989955916527, 58.86821825967676 -19.140403561325776 C59.279104673350226 -19.046621418689234, 59.689991087023685 -18.952839276052696, 60.08688938623539 -18.862249829261074 C60.541202405252605 -18.727412109954468, 60.99551542426981 -18.592574390647858, 61.285235251460605 -18.50658706670804 C61.6337550990205 -18.378328541123842, 61.9822749465804 -18.25007001553965, 62.4583315951478 -18.074876768247425 C62.69533722909915 -17.969961404619493, 62.932342863050515 -17.865046040991565, 63.60135791279238 -17.568892924097174 C63.99253379361962 -17.36481671762971, 64.38370967444686 -17.16074051116225, 64.70961726407678 -16.990714730406097 C65.10665400287068 -16.750028726102368, 65.50369074166458 -16.50934272179864, 65.7785555736057 -16.342718045390892 C66.01919436575737 -16.174858841071302, 66.25983315790906 -16.006999636751708, 66.80378034457871 -15.627565626425154 C67.1634903343031 -15.340706481904784, 67.5232003240275 -15.053847337384413, 67.78107870850187 -14.848196188198123 C68.02836370937912 -14.623618493203985, 68.27564871025639 -14.399040798209846, 68.70643473676799 -14.007812326905688 C68.9821763244757 -13.723086498792094, 69.25791791218342 -13.438360670678502, 69.57604594296865 -13.10986736009568 C69.74658759031347 -12.909539437029817, 69.91712923765829 -12.709211513963956, 70.38633890812658 -12.158051136245305 C70.67508681143785 -11.771155251283348, 70.96383471474913 -11.384259366321391, 71.13398396464063 -11.156274872382312 C71.37017424565161 -10.79342317477853, 71.60636452666259 -10.430571477174748, 71.81590887860425 -10.108655082055241 C71.98599962448736 -9.80664173918408, 72.15609037037049 -9.504628396312919, 72.4293114742735 -9.019496659696287 C72.5380056646918 -8.7937908476096, 72.64669985511009 -8.56808503552291, 72.97167114880834 -7.893275190886684 C73.0915619131558 -7.597142685018221, 73.21145267750326 -7.301010179149757, 73.44075922997033 -6.734618561215508 C73.51984781661746 -6.49641633928936, 73.5989364032646 -6.258214117363213, 73.83464813421489 -5.548287939305138 C73.94380463458285 -5.132026894675557, 74.05296113495082 -4.715765850045976, 74.15171928754556 -4.339158212148133 C74.20841500659859 -4.048037677455311, 74.26511072565161 -3.7569171427624886, 74.39066977658177 -3.1121979531509023 C74.42569635261997 -2.840538746178474, 74.46072292865816 -2.568879539206046, 74.55051770250937 -1.872449005199798 C74.57519766629473 -1.4880386479346912, 74.59987763008007 -1.1036282906695845, 74.63060621591342 -0.6250057626472757 C74.63060621591342 -0.35900803136525156, 74.63060621591342 -0.09301030008322742, 74.63060621591342 0.625005762647271 C74.6052072033845 1.0206158844991937, 74.57980819085556 1.416226006351116, 74.55051770250937 1.8724490051997846 C74.48911477835001 2.3486779596008818, 74.42771185419066 2.824906914001979, 74.39066977658177 3.1121979531508885 C74.33945056055788 3.3751978022484814, 74.28823134453397 3.6381976513460743, 74.15171928754556 4.339158212148129 C74.08491749115475 4.593902413867984, 74.01811569476395 4.848646615587841, 73.83464813421489 5.548287939305125 C73.68582860361649 5.996508654295352, 73.53700907301808 6.444729369285578, 73.44075922997033 6.734618561215495 C73.2866146235066 7.115358719364133, 73.13247001704286 7.496098877512773, 72.97167114880834 7.893275190886679 C72.8618165602355 8.121390594569837, 72.75196197166265 8.349505998252994, 72.4293114742735 9.019496659696284 C72.30408828279494 9.241843116389605, 72.17886509131638 9.464189573082928, 71.81590887860425 10.108655082055236 C71.58229586658085 10.467547402400482, 71.34868285455745 10.826439722745727, 71.13398396464065 11.156274872382301 C70.86206382156423 11.52062309167005, 70.59014367848782 11.884971310957797, 70.38633890812659 12.158051136245302 C70.08929207439378 12.506979249591513, 69.79224524066099 12.855907362937726, 69.57604594296866 13.10986736009567 C69.33263534239289 13.361208789572126, 69.0892247418171 13.612550219048583, 68.70643473676799 14.007812326905684 C68.48964561856633 14.204694468130683, 68.27285650036468 14.40157660935568, 67.7810787085019 14.848196188198111 C67.4436787115381 15.117263707185744, 67.10627871457429 15.386331226173379, 66.80378034457871 15.627565626425152 C66.51927032652728 15.826027498777654, 66.23476030847584 16.024489371130155, 65.7785555736057 16.34271804539089 C65.37847518848399 16.585249125984983, 64.97839480336229 16.827780206579074, 64.70961726407678 16.990714730406093 C64.48386887890692 17.10848751835047, 64.25812049373705 17.226260306294847, 63.60135791279239 17.56889292409717 C63.23094743274423 17.732862655777996, 62.86053695269608 17.896832387458822, 62.458331595147804 18.07487676824742 C62.12411674794218 18.19787092146727, 61.78990190073656 18.32086507468712, 61.28523525146062 18.506587066708033 C60.98193412944056 18.59660524766351, 60.678633007420494 18.68662342861899, 60.08688938623541 18.86224982926107 C59.68143339597098 18.95479251319132, 59.27597740570655 19.047335197121576, 58.868218259676766 19.140403561325773 C58.55175156875847 19.191567441677602, 58.23528487784018 19.242731322029428, 57.63422965284788 19.3399052695533 C57.36251993014814 19.36611677972339, 57.0908102074484 19.392328289893484, 56.3899942896239 19.45993515863156 C55.977909965124525 19.473149900844774, 55.56582564062516 19.486364643057993, 55.14062500000001 19.5 C55.14062500000001 19.5, 55.140625 19.5, 55.140625 19.5 C28.406634474071986 19.5, 1.6726439481439712 19.5, -55.14062499999999 19.5 C-55.55104548870686 19.48683861376219, -55.96146597741374 19.47367722752438, -56.38999428962389 19.45993515863156 C-56.74681298901874 19.42551328783821, -57.103631688413586 19.39109141704486, -57.63422965284787 19.3399052695533 C-58.056738706078775 19.271597282433568, -58.47924775930968 19.20328929531384, -58.86821825967676 19.140403561325773 C-59.263924656465626 19.050086158484273, -59.6596310532545 18.959768755642774, -60.086889386235384 18.862249829261074 C-60.37089808284398 18.777957538899713, -60.654906779452574 18.693665248538355, -61.28523525146059 18.506587066708043 C-61.61891524075809 18.383789746142554, -61.952595230055586 18.26099242557707, -62.4583315951478 18.074876768247425 C-62.83136065813195 17.909747867578336, -63.2043897211161 17.744618966909247, -63.60135791279238 17.568892924097174 C-63.9936170422658 17.364251587504857, -64.38587617173921 17.159610250912536, -64.70961726407678 16.990714730406097 C-65.03707341059281 16.792208890042165, -65.36452955710884 16.593703049678233, -65.77855557360569 16.3427180453909 C-66.00727825371366 16.183171004992815, -66.23600093382166 16.023623964594726, -66.80378034457871 15.627565626425156 C-67.12225828053039 15.373587947557501, -67.44073621648205 15.119610268689847, -67.78107870850187 14.848196188198125 C-67.97488446530119 14.672186927692309, -68.16869022210051 14.496177667186492, -68.70643473676797 14.007812326905697 C-68.88725093202619 13.821104760015873, -69.06806712728441 13.634397193126048, -69.57604594296865 13.109867360095677 C-69.84590863718883 12.792871283842343, -70.11577133140901 12.475875207589011, -70.38633890812658 12.158051136245307 C-70.64130807000043 11.816415687502827, -70.89627723187431 11.474780238760347, -71.13398396464063 11.156274872382316 C-71.30812924477384 10.888740957542337, -71.48227452490706 10.621207042702357, -71.81590887860425 10.108655082055249 C-72.02788861355928 9.732263597366806, -72.23986834851432 9.355872112678366, -72.4293114742735 9.019496659696289 C-72.58161251528858 8.703240289308237, -72.73391355630366 8.386983918920187, -72.97167114880834 7.893275190886686 C-73.15647411754098 7.436808285194737, -73.34127708627362 6.9803413795027875, -73.44075922997033 6.73461856121551 C-73.56488480861366 6.360772095067049, -73.68901038725697 5.986925628918589, -73.83464813421489 5.5482879393051325 C-73.89854160193902 5.304634455268957, -73.96243506966314 5.060980971232781, -74.15171928754556 4.339158212148136 C-74.21902082009704 3.9935790666802102, -74.28632235264853 3.6479999212122847, -74.39066977658177 3.112197953150904 C-74.43228132396035 2.78946700881209, -74.47389287133893 2.466736064473275, -74.55051770250937 1.872449005199809 C-74.57453175686926 1.4984107247486786, -74.59854581122916 1.1243724442975482, -74.63060621591342 0.6250057626472781 C-74.63060621591342 0.2822269177555632, -74.63060621591342 -0.06055192713615176, -74.63060621591342 -0.6250057626472687 C-74.60379775234006 -1.042569222204601, -74.5769892887667 -1.4601326817619333, -74.55051770250937 -1.8724490051997822 C-74.51111827233011 -2.178023205372585, -74.47171884215085 -2.483597405545388, -74.39066977658177 -3.112197953150895 C-74.29645089754285 -3.5959919838486294, -74.20223201850393 -4.079786014546364, -74.15171928754556 -4.339158212148126 C-74.0442235130096 -4.749086189417122, -73.93672773847365 -5.159014166686118, -73.83464813421489 -5.548287939305123 C-73.69595401082775 -5.966012541039561, -73.55725988744061 -6.383737142773998, -73.44075922997033 -6.734618561215485 C-73.27074266223799 -7.154562770561072, -73.10072609450566 -7.574506979906659, -72.97167114880834 -7.893275190886676 C-72.78392459979003 -8.283134917055822, -72.59617805077171 -8.672994643224968, -72.4293114742735 -9.019496659696282 C-72.23370560927847 -9.366814680236601, -72.03809974428346 -9.71413270077692, -71.81590887860425 -10.108655082055243 C-71.64604499971531 -10.369611614866793, -71.4761811208264 -10.630568147678341, -71.13398396464063 -11.156274872382308 C-70.97026631241214 -11.375641611383557, -70.80654866018362 -11.595008350384806, -70.38633890812659 -12.158051136245302 C-70.15843924812336 -12.425755044743106, -69.93053958812014 -12.69345895324091, -69.57604594296866 -13.10986736009567 C-69.2282224069483 -13.469023717880072, -68.88039887092796 -13.828180075664473, -68.70643473676799 -14.007812326905677 C-68.40206770674902 -14.28423041045859, -68.09770067673006 -14.560648494011504, -67.7810787085019 -14.848196188198107 C-67.54288433749845 -15.038149860454936, -67.304689966495 -15.228103532711765, -66.80378034457871 -15.627565626425149 C-66.58091820811845 -15.783024605273434, -66.35805607165818 -15.938483584121718, -65.77855557360571 -16.342718045390885 C-65.55821624944919 -16.476289038552164, -65.33787692529268 -16.60986003171344, -64.70961726407678 -16.99071473040609 C-64.42623767215292 -17.13855368199948, -64.14285808022906 -17.286392633592865, -63.60135791279239 -17.56889292409717 C-63.355144822736754 -17.677884155412983, -63.10893173268112 -17.78687538672879, -62.458331595147804 -18.07487676824742 C-61.99345148268229 -18.245956946939383, -61.528571370216774 -18.417037125631342, -61.28523525146062 -18.506587066708033 C-60.877947779652516 -18.62746785044511, -60.47066030784441 -18.74834863418219, -60.08688938623541 -18.862249829261067 C-59.71338358687879 -18.947500090611094, -59.33987778752217 -19.03275035196112, -58.868218259676766 -19.140403561325773 C-58.427077111290565 -19.211723841096155, -57.985935962904364 -19.283044120866535, -57.63422965284788 -19.3399052695533 C-57.196306759920624 -19.382151164354656, -56.75838386699337 -19.424397059156014, -56.3899942896239 -19.45993515863156 C-55.92758797893151 -19.474763628996183, -55.46518166823913 -19.489592099360802, -55.14062500000001 -19.5 C-55.14062500000001 -19.5, -55.14062500000001 -19.5, -55.140625 -19.5" stroke="none" stroke-width="0" fill="#ECECFF" style=""/><path d="M-55.140625 -19.5 C-27.216979646628065 -19.5, 0.7066657067438697 -19.5, 55.140625 -19.5 M-55.140625 -19.5 C-31.879931122202166 -19.5, -8.619237244404331 -19.5, 55.140625 -19.5 M55.140625 -19.5 C55.140625 -19.5, 55.140625 -19.5, 55.140625 -19.5 M55.140625 -19.5 C55.140625 -19.5, 55.140625 -19.5, 55.140625 -19.5 M55.140625 -19.5 C55.42290828128464 -19.490947724600275, 55.70519156256928 -19.481895449200554, 56.3899942896239 -19.45993515863156 M55.140625 -19.5 C55.61496430404623 -19.484788861764684, 56.08930360809247 -19.469577723529365, 56.3899942896239 -19.45993515863156 M56.3899942896239 -19.45993515863156 C56.85500849989713 -19.41507579702791, 57.32002271017036 -19.37021643542426, 57.634229652847864 -19.3399052695533 M56.3899942896239 -19.45993515863156 C56.745556069110975 -19.425634541390043, 57.10111784859805 -19.39133392414853, 57.634229652847864 -19.3399052695533 M57.634229652847864 -19.3399052695533 C57.99460374095708 -19.281642781730593, 58.3549778290663 -19.22338029390789, 58.86821825967676 -19.140403561325776 M57.634229652847864 -19.3399052695533 C58.01272957445214 -19.27871233753905, 58.39122949605641 -19.217519405524804, 58.86821825967676 -19.140403561325776 M58.86821825967676 -19.140403561325776 C59.11353009978192 -19.084412734631133, 59.35884193988707 -19.02842190793649, 60.08688938623539 -18.862249829261074 M58.86821825967676 -19.140403561325776 C59.16517902959565 -19.072624203441915, 59.46213979951454 -19.004844845558054, 60.08688938623539 -18.862249829261074 M60.08688938623539 -18.862249829261074 C60.489599231294456 -18.742727661114657, 60.89230907635351 -18.623205492968243, 61.285235251460605 -18.50658706670804 M60.08688938623539 -18.862249829261074 C60.33537702541829 -18.788500002289826, 60.58386466460118 -18.714750175318578, 61.285235251460605 -18.50658706670804 M61.285235251460605 -18.50658706670804 C61.683149211323666 -18.36015105120211, 62.081063171186734 -18.21371503569618, 62.4583315951478 -18.074876768247425 M61.285235251460605 -18.50658706670804 C61.66484495659967 -18.366887186143217, 62.04445466173874 -18.227187305578394, 62.4583315951478 -18.074876768247425 M62.4583315951478 -18.074876768247425 C62.82476861244851 -17.91266597065631, 63.19120562974921 -17.75045517306519, 63.60135791279238 -17.568892924097174 M62.4583315951478 -18.074876768247425 C62.81040413763351 -17.9190246975499, 63.162476680119234 -17.763172626852374, 63.60135791279238 -17.568892924097174 M63.60135791279238 -17.568892924097174 C63.912896631389735 -17.406363374155006, 64.22443534998709 -17.24383382421284, 64.70961726407678 -16.990714730406097 M63.60135791279238 -17.568892924097174 C63.89485301338371 -17.41577671811126, 64.18834811397504 -17.26266051212535, 64.70961726407678 -16.990714730406097 M64.70961726407678 -16.990714730406097 C65.12129022884432 -16.74115615990514, 65.53296319361185 -16.491597589404186, 65.7785555736057 -16.342718045390892 M64.70961726407678 -16.990714730406097 C65.02651512147533 -16.798609386952577, 65.34341297887387 -16.606504043499054, 65.7785555736057 -16.342718045390892 M65.7785555736057 -16.342718045390892 C66.10041757789173 -16.118201044382563, 66.42227958217775 -15.893684043374233, 66.80378034457871 -15.627565626425154 M65.7785555736057 -16.342718045390892 C66.09176230512965 -16.124238587980674, 66.40496903665358 -15.905759130570454, 66.80378034457871 -15.627565626425154 M66.80378034457871 -15.627565626425154 C67.07087054343202 -15.414568300408334, 67.33796074228532 -15.201570974391512, 67.78107870850187 -14.848196188198123 M66.80378034457871 -15.627565626425154 C67.03902374853897 -15.439965271856742, 67.2742671524992 -15.25236491728833, 67.78107870850187 -14.848196188198123 M67.78107870850187 -14.848196188198123 C68.01763233085637 -14.633364447241634, 68.25418595321088 -14.418532706285147, 68.70643473676799 -14.007812326905688 M67.78107870850187 -14.848196188198123 C67.98660839670592 -14.66153956338876, 68.19213808490997 -14.474882938579398, 68.70643473676799 -14.007812326905688 M68.70643473676799 -14.007812326905688 C69.01393096811265 -13.690297222132218, 69.32142719945732 -13.37278211735875, 69.57604594296865 -13.10986736009568 M68.70643473676799 -14.007812326905688 C68.93292489859358 -13.773942639632656, 69.15941506041916 -13.540072952359623, 69.57604594296865 -13.10986736009568 M69.57604594296865 -13.10986736009568 C69.89454350282155 -12.73574200326791, 70.21304106267444 -12.361616646440142, 70.38633890812658 -12.158051136245305 M69.57604594296865 -13.10986736009568 C69.88744125207387 -12.744084711125648, 70.19883656117908 -12.378302062155617, 70.38633890812658 -12.158051136245305 M70.38633890812658 -12.158051136245305 C70.61835875281223 -11.847165681809226, 70.85037859749788 -11.536280227373146, 71.13398396464063 -11.156274872382312 M70.38633890812658 -12.158051136245305 C70.66654119920499 -11.782605593154095, 70.9467434902834 -11.407160050062885, 71.13398396464063 -11.156274872382312 M71.13398396464063 -11.156274872382312 C71.28365987248222 -10.92633248432874, 71.43333578032382 -10.696390096275165, 71.81590887860425 -10.108655082055241 M71.13398396464063 -11.156274872382312 C71.39754729864808 -10.751370814682023, 71.66111063265554 -10.346466756981734, 71.81590887860425 -10.108655082055241 M71.81590887860425 -10.108655082055241 C71.99587825433242 -9.789101231574433, 72.17584763006062 -9.469547381093625, 72.4293114742735 -9.019496659696287 M71.81590887860425 -10.108655082055241 C71.95721154654181 -9.857757886685414, 72.09851421447938 -9.606860691315585, 72.4293114742735 -9.019496659696287 M72.4293114742735 -9.019496659696287 C72.59575514566127 -8.673872814735526, 72.76219881704904 -8.328248969774766, 72.97167114880834 -7.893275190886684 M72.4293114742735 -9.019496659696287 C72.59362556302956 -8.678294938636038, 72.75793965178563 -8.337093217575786, 72.97167114880834 -7.893275190886684 M72.97167114880834 -7.893275190886684 C73.09473340518558 -7.589309038388055, 73.2177956615628 -7.285342885889426, 73.44075922997033 -6.734618561215508 M72.97167114880834 -7.893275190886684 C73.15821881594677 -7.4324988464009705, 73.34476648308521 -6.971722501915256, 73.44075922997033 -6.734618561215508 M73.44075922997033 -6.734618561215508 C73.57774982645034 -6.322024711105165, 73.71474042293036 -5.909430860994821, 73.83464813421489 -5.548287939305138 M73.44075922997033 -6.734618561215508 C73.57559210350553 -6.328523428828464, 73.71042497704073 -5.92242829644142, 73.83464813421489 -5.548287939305138 M73.83464813421489 -5.548287939305138 C73.918746167765 -5.227585689060275, 74.0028442013151 -4.906883438815413, 74.15171928754556 -4.339158212148133 M73.83464813421489 -5.548287939305138 C73.94249970818196 -5.137003144600884, 74.05035128214901 -4.72571834989663, 74.15171928754556 -4.339158212148133 M74.15171928754556 -4.339158212148133 C74.23136305301993 -3.9302043091530434, 74.31100681849429 -3.5212504061579533, 74.39066977658177 -3.1121979531509023 M74.15171928754556 -4.339158212148133 C74.22924776778363 -3.9410658517757597, 74.30677624802169 -3.542973491403386, 74.39066977658177 -3.1121979531509023 M74.39066977658177 -3.1121979531509023 C74.45020242459229 -2.6504744912324103, 74.50973507260281 -2.1887510293139183, 74.55051770250937 -1.872449005199798 M74.39066977658177 -3.1121979531509023 C74.42410042575794 -2.852916439768938, 74.45753107493411 -2.5936349263869736, 74.55051770250937 -1.872449005199798 M74.55051770250937 -1.872449005199798 C74.57842496186916 -1.437770914336734, 74.60633222122895 -1.0030928234736702, 74.63060621591342 -0.6250057626472757 M74.55051770250937 -1.872449005199798 C74.57878716536185 -1.4321293025728117, 74.60705662821431 -0.9918095999458253, 74.63060621591342 -0.6250057626472757 M74.63060621591342 -0.6250057626472757 C74.63060621591342 -0.2648630486499429, 74.63060621591342 0.09527966534738985, 74.63060621591342 0.625005762647271 M74.63060621591342 -0.6250057626472757 C74.63060621591342 -0.253164837508869, 74.63060621591342 0.11867608762953774, 74.63060621591342 0.625005762647271 M74.63060621591342 0.625005762647271 C74.61268420483884 0.9041555515206514, 74.59476219376428 1.183305340394032, 74.55051770250937 1.8724490051997846 M74.63060621591342 0.625005762647271 C74.60480421347556 1.0268927776183452, 74.5790022110377 1.4287797925894195, 74.55051770250937 1.8724490051997846 M74.55051770250937 1.8724490051997846 C74.49098260606408 2.334191456694845, 74.4314475096188 2.7959339081899053, 74.39066977658177 3.1121979531508885 M74.55051770250937 1.8724490051997846 C74.51416690583015 2.154378605967099, 74.47781610915092 2.436308206734414, 74.39066977658177 3.1121979531508885 M74.39066977658177 3.1121979531508885 C74.3110938682407 3.520803424108108, 74.23151795989963 3.9294088950653276, 74.15171928754556 4.339158212148129 M74.39066977658177 3.1121979531508885 C74.31341442385153 3.5088878614961665, 74.23615907112126 3.905577769841444, 74.15171928754556 4.339158212148129 M74.15171928754556 4.339158212148129 C74.0398462962667 4.765778413955566, 73.92797330498783 5.192398615763002, 73.83464813421489 5.548287939305125 M74.15171928754556 4.339158212148129 C74.05167873747398 4.720656187419729, 73.95163818740241 5.102154162691329, 73.83464813421489 5.548287939305125 M73.83464813421489 5.548287939305125 C73.69460630735986 5.97007160915744, 73.55456448050485 6.391855279009755, 73.44075922997033 6.734618561215495 M73.83464813421489 5.548287939305125 C73.70152827439816 5.949223747303798, 73.56840841458143 6.350159555302471, 73.44075922997033 6.734618561215495 M73.44075922997033 6.734618561215495 C73.29670562473541 7.090433751232726, 73.1526520195005 7.446248941249957, 72.97167114880834 7.893275190886679 M73.44075922997033 6.734618561215495 C73.27736440908069 7.138206927836862, 73.11396958819104 7.541795294458228, 72.97167114880834 7.893275190886679 M72.97167114880834 7.893275190886679 C72.76483828270868 8.322768062857, 72.55800541660902 8.752260934827321, 72.4293114742735 9.019496659696284 M72.97167114880834 7.893275190886679 C72.7564378542047 8.340211732385892, 72.54120455960107 8.787148273885105, 72.4293114742735 9.019496659696284 M72.4293114742735 9.019496659696284 C72.23020206334532 9.373035580813438, 72.03109265241712 9.72657450193059, 71.81590887860425 10.108655082055236 M72.4293114742735 9.019496659696284 C72.24308117488664 9.35016741412035, 72.05685087549978 9.680838168544417, 71.81590887860425 10.108655082055236 M71.81590887860425 10.108655082055236 C71.60295828541234 10.435804378438961, 71.39000769222045 10.762953674822684, 71.13398396464065 11.156274872382301 M71.81590887860425 10.108655082055236 C71.59022090810146 10.455372410453203, 71.36453293759867 10.802089738851167, 71.13398396464065 11.156274872382301 M71.13398396464065 11.156274872382301 C70.87765040780126 11.499738486079652, 70.62131685096186 11.843202099777002, 70.38633890812659 12.158051136245302 M71.13398396464065 11.156274872382301 C70.84086750569857 11.54902422390593, 70.5477510467565 11.941773575429556, 70.38633890812659 12.158051136245302 M70.38633890812659 12.158051136245302 C70.06484606268388 12.535694925963446, 69.74335321724116 12.913338715681588, 69.57604594296866 13.10986736009567 M70.38633890812659 12.158051136245302 C70.09622640072658 12.49883379530667, 69.80611389332657 12.839616454368038, 69.57604594296866 13.10986736009567 M69.57604594296866 13.10986736009567 C69.30354519172987 13.391246758477482, 69.03104444049106 13.672626156859293, 68.70643473676799 14.007812326905684 M69.57604594296866 13.10986736009567 C69.3877002077072 13.304349795225583, 69.19935447244572 13.498832230355497, 68.70643473676799 14.007812326905684 M68.70643473676799 14.007812326905684 C68.3631366749228 14.319586543504512, 68.01983861307762 14.631360760103338, 67.7810787085019 14.848196188198111 M68.70643473676799 14.007812326905684 C68.49490889333046 14.199914501248514, 68.28338304989295 14.392016675591345, 67.7810787085019 14.848196188198111 M67.7810787085019 14.848196188198111 C67.585291299881 15.004331436451517, 67.3895038912601 15.160466684704925, 66.80378034457871 15.627565626425152 M67.7810787085019 14.848196188198111 C67.54139041769959 15.039341221739651, 67.3017021268973 15.230486255281189, 66.80378034457871 15.627565626425152 M66.80378034457871 15.627565626425152 C66.59193070960062 15.775342760962976, 66.38008107462254 15.923119895500799, 65.7785555736057 16.34271804539089 M66.80378034457871 15.627565626425152 C66.43891710334171 15.88207842883694, 66.0740538621047 16.136591231248726, 65.7785555736057 16.34271804539089 M65.7785555736057 16.34271804539089 C65.40537000302069 16.568945331361363, 65.03218443243568 16.795172617331833, 64.70961726407678 16.990714730406093 M65.7785555736057 16.34271804539089 C65.45765389908723 16.537250526311546, 65.13675222456878 16.7317830072322, 64.70961726407678 16.990714730406093 M64.70961726407678 16.990714730406093 C64.332363674666 17.18752768635924, 63.95511008525523 17.384340642312388, 63.60135791279239 17.56889292409717 M64.70961726407678 16.990714730406093 C64.39638659190297 17.154126971445354, 64.08315591972914 17.31753921248462, 63.60135791279239 17.56889292409717 M63.60135791279239 17.56889292409717 C63.261996558042235 17.719118129048148, 62.92263520329208 17.86934333399913, 62.458331595147804 18.07487676824742 M63.60135791279239 17.56889292409717 C63.196737769837625 17.748006258753158, 62.792117626882856 17.927119593409145, 62.458331595147804 18.07487676824742 M62.458331595147804 18.07487676824742 C62.14733943892935 18.18932475651579, 61.83634728271089 18.303772744784162, 61.28523525146062 18.506587066708033 M62.458331595147804 18.07487676824742 C62.140975008293246 18.19166692582203, 61.82361842143869 18.308457083396636, 61.28523525146062 18.506587066708033 M61.28523525146062 18.506587066708033 C61.005543511037736 18.589598107133643, 60.72585177061485 18.67260914755925, 60.08688938623541 18.86224982926107 M61.28523525146062 18.506587066708033 C61.028628769334404 18.582746523648183, 60.77202228720819 18.658905980588333, 60.08688938623541 18.86224982926107 M60.08688938623541 18.86224982926107 C59.63176882870914 18.966128126577246, 59.17664827118288 19.070006423893425, 58.868218259676766 19.140403561325773 M60.08688938623541 18.86224982926107 C59.78160629955506 18.931928701637542, 59.47632321287471 19.001607574014017, 58.868218259676766 19.140403561325773 M58.868218259676766 19.140403561325773 C58.52140048392403 19.196474369697455, 58.1745827081713 19.252545178069138, 57.63422965284788 19.3399052695533 M58.868218259676766 19.140403561325773 C58.53031402333431 19.195033297771133, 58.19240978699186 19.24966303421649, 57.63422965284788 19.3399052695533 M57.63422965284788 19.3399052695533 C57.24805167236781 19.37715939488324, 56.861873691887745 19.414413520213177, 56.3899942896239 19.45993515863156 M57.63422965284788 19.3399052695533 C57.20634552988249 19.381182736289823, 56.778461406917096 19.422460203026347, 56.3899942896239 19.45993515863156 M56.3899942896239 19.45993515863156 C56.06271563733688 19.470430348001152, 55.73543698504985 19.480925537370744, 55.14062500000001 19.5 M56.3899942896239 19.45993515863156 C56.108787930307976 19.46895289923985, 55.82758157099205 19.477970639848134, 55.14062500000001 19.5 M55.14062500000001 19.5 C55.14062500000001 19.5, 55.140625 19.5, 55.140625 19.5 M55.14062500000001 19.5 C55.14062500000001 19.5, 55.14062500000001 19.5, 55.140625 19.5 M55.140625 19.5 C24.063502514942858 19.5, -7.013619970114284 19.5, -55.14062499999999 19.5 M55.140625 19.5 C12.283373693313308 19.5, -30.573877613373384 19.5, -55.14062499999999 19.5 M-55.14062499999999 19.5 C-55.55470706137625 19.4867211942535, -55.96878912275251 19.473442388507003, -56.38999428962389 19.45993515863156 M-55.14062499999999 19.5 C-55.410156401179876 19.491356652575206, -55.67968780235975 19.482713305150416, -56.38999428962389 19.45993515863156 M-56.38999428962389 19.45993515863156 C-56.666460561015064 19.43326478992979, -56.94292683240623 19.40659442122802, -57.63422965284787 19.3399052695533 M-56.38999428962389 19.45993515863156 C-56.850182761965854 19.41554133016234, -57.31037123430782 19.371147501693123, -57.63422965284787 19.3399052695533 M-57.63422965284787 19.3399052695533 C-57.997094992762136 19.2812400154587, -58.35996033267641 19.222574761364097, -58.86821825967676 19.140403561325773 M-57.63422965284787 19.3399052695533 C-57.90324320703975 19.296413244342826, -58.17225676123162 19.252921219132354, -58.86821825967676 19.140403561325773 M-58.86821825967676 19.140403561325773 C-59.24428762135925 19.054568183603674, -59.62035698304173 18.96873280588158, -60.086889386235384 18.862249829261074 M-58.86821825967676 19.140403561325773 C-59.19834301808754 19.065054739483887, -59.52846777649832 18.989705917642002, -60.086889386235384 18.862249829261074 M-60.086889386235384 18.862249829261074 C-60.54164935742712 18.72727945689517, -60.996409328618846 18.592309084529266, -61.28523525146059 18.506587066708043 M-60.086889386235384 18.862249829261074 C-60.37465541549649 18.77684238229109, -60.6624214447576 18.691434935321105, -61.28523525146059 18.506587066708043 M-61.28523525146059 18.506587066708043 C-61.53036979327903 18.416375289319994, -61.77550433509747 18.326163511931945, -62.4583315951478 18.074876768247425 M-61.28523525146059 18.506587066708043 C-61.57393167137287 18.400344115499873, -61.86262809128515 18.294101164291703, -62.4583315951478 18.074876768247425 M-62.4583315951478 18.074876768247425 C-62.795757915825874 17.92550814547941, -63.13318423650395 17.776139522711393, -63.60135791279238 17.568892924097174 M-62.4583315951478 18.074876768247425 C-62.78684867391427 17.929452002590402, -63.11536575268075 17.78402723693338, -63.60135791279238 17.568892924097174 M-63.60135791279238 17.568892924097174 C-64.02747150586919 17.34658973552779, -64.453585098946 17.124286546958405, -64.70961726407678 16.990714730406097 M-63.60135791279238 17.568892924097174 C-64.03872389419692 17.340719371744708, -64.47608987560146 17.112545819392246, -64.70961726407678 16.990714730406097 M-64.70961726407678 16.990714730406097 C-65.01951253217095 16.80285439774067, -65.32940780026512 16.614994065075248, -65.77855557360569 16.3427180453909 M-64.70961726407678 16.990714730406097 C-64.96425352193906 16.836352734481235, -65.21888977980133 16.681990738556372, -65.77855557360569 16.3427180453909 M-65.77855557360569 16.3427180453909 C-65.98994887853388 16.195259226941673, -66.20134218346207 16.047800408492446, -66.80378034457871 15.627565626425156 M-65.77855557360569 16.3427180453909 C-66.03221547522769 16.165775878779556, -66.28587537684969 15.988833712168214, -66.80378034457871 15.627565626425156 M-66.80378034457871 15.627565626425156 C-67.00438757616465 15.467586697618005, -67.20499480775058 15.307607768810852, -67.78107870850187 14.848196188198125 M-66.80378034457871 15.627565626425156 C-67.05221158639075 15.429448322113036, -67.30064282820281 15.231331017800915, -67.78107870850187 14.848196188198125 M-67.78107870850187 14.848196188198125 C-68.08661325151844 14.570717800231488, -68.39214779453502 14.293239412264851, -68.70643473676797 14.007812326905697 M-67.78107870850187 14.848196188198125 C-68.08708719587003 14.570287376511255, -68.3930956832382 14.292378564824386, -68.70643473676797 14.007812326905697 M-68.70643473676797 14.007812326905697 C-68.95464462598135 13.751515237882, -69.20285451519472 13.495218148858303, -69.57604594296865 13.109867360095677 M-68.70643473676797 14.007812326905697 C-68.96736554780615 13.73837984169078, -69.22829635884433 13.46894735647586, -69.57604594296865 13.109867360095677 M-69.57604594296865 13.109867360095677 C-69.81849443183155 12.825073569367474, -70.06094292069447 12.540279778639269, -70.38633890812658 12.158051136245307 M-69.57604594296865 13.109867360095677 C-69.80094424268174 12.845689020176906, -70.02584254239483 12.581510680258132, -70.38633890812658 12.158051136245307 M-70.38633890812658 12.158051136245307 C-70.65143594406739 11.80284525892142, -70.9165329800082 11.447639381597535, -71.13398396464063 11.156274872382316 M-70.38633890812658 12.158051136245307 C-70.55381154849593 11.933653055221779, -70.72128418886528 11.709254974198249, -71.13398396464063 11.156274872382316 M-71.13398396464063 11.156274872382316 C-71.28311069767693 10.92717616430376, -71.43223743071323 10.698077456225203, -71.81590887860425 10.108655082055249 M-71.13398396464063 11.156274872382316 C-71.30110918626917 10.899525652555175, -71.4682344078977 10.642776432728033, -71.81590887860425 10.108655082055249 M-71.81590887860425 10.108655082055249 C-72.0325110648004 9.724055967114246, -72.24911325099656 9.339456852173244, -72.4293114742735 9.019496659696289 M-71.81590887860425 10.108655082055249 C-71.9687294731468 9.837306641681739, -72.12155006768934 9.565958201308229, -72.4293114742735 9.019496659696289 M-72.4293114742735 9.019496659696289 C-72.55380473220006 8.760983745882788, -72.67829799012662 8.502470832069287, -72.97167114880834 7.893275190886686 M-72.4293114742735 9.019496659696289 C-72.60140636543498 8.662137935958688, -72.77350125659646 8.304779212221089, -72.97167114880834 7.893275190886686 M-72.97167114880834 7.893275190886686 C-73.09791524389166 7.581449835267332, -73.224159338975 7.269624479647978, -73.44075922997033 6.73461856121551 M-72.97167114880834 7.893275190886686 C-73.13146136475383 7.498590268167654, -73.29125158069932 7.103905345448623, -73.44075922997033 6.73461856121551 M-73.44075922997033 6.73461856121551 C-73.59003914928506 6.2850112287646835, -73.73931906859978 5.835403896313857, -73.83464813421489 5.5482879393051325 M-73.44075922997033 6.73461856121551 C-73.53258678071063 6.458048609119029, -73.62441433145094 6.181478657022549, -73.83464813421489 5.5482879393051325 M-73.83464813421489 5.5482879393051325 C-73.9212190372858 5.218155565829042, -74.0077899403567 4.88802319235295, -74.15171928754556 4.339158212148136 M-73.83464813421489 5.5482879393051325 C-73.91023060587312 5.260059217221832, -73.98581307753136 4.971830495138532, -74.15171928754556 4.339158212148136 M-74.15171928754556 4.339158212148136 C-74.23544434496498 3.909247737596574, -74.31916940238439 3.479337263045012, -74.39066977658177 3.112197953150904 M-74.15171928754556 4.339158212148136 C-74.2344880618703 3.914158049177291, -74.31725683619501 3.489157886206447, -74.39066977658177 3.112197953150904 M-74.39066977658177 3.112197953150904 C-74.4432169700913 2.704652296908073, -74.49576416360082 2.297106640665242, -74.55051770250937 1.872449005199809 M-74.39066977658177 3.112197953150904 C-74.422774586157 2.863199389897114, -74.45487939573225 2.6142008266433243, -74.55051770250937 1.872449005199809 M-74.55051770250937 1.872449005199809 C-74.57879917658825 1.4319422180263426, -74.60708065066711 0.9914354308528761, -74.63060621591342 0.6250057626472781 M-74.55051770250937 1.872449005199809 C-74.58198246374664 1.382359951031216, -74.6134472249839 0.8922708968626226, -74.63060621591342 0.6250057626472781 M-74.63060621591342 0.6250057626472781 C-74.63060621591342 0.1569094015723645, -74.63060621591342 -0.31118695950254915, -74.63060621591342 -0.6250057626472687 M-74.63060621591342 0.6250057626472781 C-74.63060621591342 0.34946849612060205, -74.63060621591342 0.07393122959392595, -74.63060621591342 -0.6250057626472687 M-74.63060621591342 -0.6250057626472687 C-74.6019055407817 -1.0720419445917424, -74.57320486564998 -1.519078126536216, -74.55051770250937 -1.8724490051997822 M-74.63060621591342 -0.6250057626472687 C-74.60094258050955 -1.0870408281178903, -74.5712789451057 -1.5490758935885116, -74.55051770250937 -1.8724490051997822 M-74.55051770250937 -1.8724490051997822 C-74.50452961990261 -2.2291234925237355, -74.45854153729584 -2.5857979798476887, -74.39066977658177 -3.112197953150895 M-74.55051770250937 -1.8724490051997822 C-74.50361313960079 -2.2362315327651197, -74.45670857669221 -2.6000140603304573, -74.39066977658177 -3.112197953150895 M-74.39066977658177 -3.112197953150895 C-74.33373036915383 -3.4045697761453937, -74.27679096172588 -3.6969415991398917, -74.15171928754556 -4.339158212148126 M-74.39066977658177 -3.112197953150895 C-74.32328027716518 -3.4582287898793203, -74.2558907777486 -3.804259626607745, -74.15171928754556 -4.339158212148126 M-74.15171928754556 -4.339158212148126 C-74.08089978654583 -4.609223662825988, -74.0100802855461 -4.879289113503851, -73.83464813421489 -5.548287939305123 M-74.15171928754556 -4.339158212148126 C-74.05692022327547 -4.700668130384334, -73.96212115900538 -5.062178048620542, -73.83464813421489 -5.548287939305123 M-73.83464813421489 -5.548287939305123 C-73.69944199346446 -5.955507293072366, -73.56423585271402 -6.36272664683961, -73.44075922997033 -6.734618561215485 M-73.83464813421489 -5.548287939305123 C-73.69125991100714 -5.980150421796013, -73.54787168779939 -6.412012904286904, -73.44075922997033 -6.734618561215485 M-73.44075922997033 -6.734618561215485 C-73.34089020658652 -6.981296979809691, -73.24102118320272 -7.2279753984038955, -72.97167114880834 -7.893275190886676 M-73.44075922997033 -6.734618561215485 C-73.27892927111348 -7.134341688361304, -73.11709931225663 -7.534064815507123, -72.97167114880834 -7.893275190886676 M-72.97167114880834 -7.893275190886676 C-72.77599178905858 -8.29960756827463, -72.58031242930882 -8.705939945662584, -72.4293114742735 -9.019496659696282 M-72.97167114880834 -7.893275190886676 C-72.77400489664699 -8.303733392880003, -72.57633864448562 -8.71419159487333, -72.4293114742735 -9.019496659696282 M-72.4293114742735 -9.019496659696282 C-72.2801951686909 -9.284267759921503, -72.13107886310827 -9.549038860146727, -71.81590887860425 -10.108655082055243 M-72.4293114742735 -9.019496659696282 C-72.28433325305663 -9.276920172103644, -72.13935503183977 -9.534343684511008, -71.81590887860425 -10.108655082055243 M-71.81590887860425 -10.108655082055243 C-71.58062212824836 -10.470118713940852, -71.34533537789248 -10.83158234582646, -71.13398396464063 -11.156274872382308 M-71.81590887860425 -10.108655082055243 C-71.56915976089708 -10.487727988269022, -71.32241064318993 -10.8668008944828, -71.13398396464063 -11.156274872382308 M-71.13398396464063 -11.156274872382308 C-70.95882348200848 -11.390973961661144, -70.78366299937635 -11.62567305093998, -70.38633890812659 -12.158051136245302 M-71.13398396464063 -11.156274872382308 C-70.97114993237982 -11.374457641126297, -70.808315900119 -11.592640409870283, -70.38633890812659 -12.158051136245302 M-70.38633890812659 -12.158051136245302 C-70.13187099856806 -12.456963622446992, -69.87740308900953 -12.755876108648682, -69.57604594296866 -13.10986736009567 M-70.38633890812659 -12.158051136245302 C-70.1496438598742 -12.436086608252342, -69.91294881162182 -12.714122080259383, -69.57604594296866 -13.10986736009567 M-69.57604594296866 -13.10986736009567 C-69.35391646370678 -13.339234284602966, -69.13178698444491 -13.568601209110263, -68.70643473676799 -14.007812326905677 M-69.57604594296866 -13.10986736009567 C-69.3469969304819 -13.346379270761915, -69.11794791799512 -13.582891181428158, -68.70643473676799 -14.007812326905677 M-68.70643473676799 -14.007812326905677 C-68.3893801625531 -14.295752902403304, -68.0723255883382 -14.583693477900932, -67.7810787085019 -14.848196188198107 M-68.70643473676799 -14.007812326905677 C-68.4748193039025 -14.218159334825575, -68.24320387103703 -14.428506342745473, -67.7810787085019 -14.848196188198107 M-67.7810787085019 -14.848196188198107 C-67.44351290282938 -15.117395935218578, -67.10594709715689 -15.386595682239049, -66.80378034457871 -15.627565626425149 M-67.7810787085019 -14.848196188198107 C-67.40439342932913 -15.148592674322124, -67.02770815015636 -15.448989160446141, -66.80378034457871 -15.627565626425149 M-66.80378034457871 -15.627565626425149 C-66.5758866722035 -15.78653438691603, -66.34799299982826 -15.945503147406912, -65.77855557360571 -16.342718045390885 M-66.80378034457871 -15.627565626425149 C-66.42852407323866 -15.889328156729803, -66.05326780189861 -16.151090687034458, -65.77855557360571 -16.342718045390885 M-65.77855557360571 -16.342718045390885 C-65.4937673637859 -16.515358331784935, -65.20897915396611 -16.687998618178987, -64.70961726407678 -16.99071473040609 M-65.77855557360571 -16.342718045390885 C-65.39443415676413 -16.575574705628252, -65.01031273992257 -16.80843136586562, -64.70961726407678 -16.99071473040609 M-64.70961726407678 -16.99071473040609 C-64.44695604416614 -17.127744920590928, -64.18429482425552 -17.264775110775766, -63.60135791279239 -17.56889292409717 M-64.70961726407678 -16.99071473040609 C-64.28887752100701 -17.210214384868927, -63.868137777937235 -17.429714039331763, -63.60135791279239 -17.56889292409717 M-63.60135791279239 -17.56889292409717 C-63.20902196553806 -17.742568409714295, -62.816686018283725 -17.91624389533142, -62.458331595147804 -18.07487676824742 M-63.60135791279239 -17.56889292409717 C-63.20580319833503 -17.743993262473737, -62.81024848387767 -17.919093600850303, -62.458331595147804 -18.07487676824742 M-62.458331595147804 -18.07487676824742 C-62.10964405892741 -18.20319700480878, -61.76095652270701 -18.331517241370136, -61.28523525146062 -18.506587066708033 M-62.458331595147804 -18.07487676824742 C-62.07116200376018 -18.217358756834535, -61.683992412372554 -18.359840745421653, -61.28523525146062 -18.506587066708033 M-61.28523525146062 -18.506587066708033 C-61.03587032811745 -18.580597267013093, -60.78650540477428 -18.65460746731815, -60.08688938623541 -18.862249829261067 M-61.28523525146062 -18.506587066708033 C-60.81820370750861 -18.64519957745439, -60.35117216355659 -18.783812088200747, -60.08688938623541 -18.862249829261067 M-60.08688938623541 -18.862249829261067 C-59.73438084641025 -18.94270760314296, -59.38187230658509 -19.023165377024856, -58.868218259676766 -19.140403561325773 M-60.08688938623541 -18.862249829261067 C-59.63484050863002 -18.96542703567989, -59.18279163102463 -19.068604242098715, -58.868218259676766 -19.140403561325773 M-58.868218259676766 -19.140403561325773 C-58.46937818170804 -19.20488493208076, -58.0705381037393 -19.269366302835742, -57.63422965284788 -19.3399052695533 M-58.868218259676766 -19.140403561325773 C-58.52249477300979 -19.19629745352441, -58.17677128634281 -19.252191345723045, -57.63422965284788 -19.3399052695533 M-57.63422965284788 -19.3399052695533 C-57.37053046035346 -19.365344013508558, -57.106831267859036 -19.390782757463814, -56.3899942896239 -19.45993515863156 M-57.63422965284788 -19.3399052695533 C-57.1686084305008 -19.384823188881672, -56.702987208153715 -19.429741108210045, -56.3899942896239 -19.45993515863156 M-56.3899942896239 -19.45993515863156 C-55.93915385993773 -19.474392733703933, -55.48831343025157 -19.488850308776307, -55.14062500000001 -19.5 M-56.3899942896239 -19.45993515863156 C-56.00754650385511 -19.47219951473171, -55.62509871808631 -19.484463870831856, -55.14062500000001 -19.5 M-55.14062500000001 -19.5 C-55.14062500000001 -19.5, -55.140625 -19.5, -55.140625 -19.5 M-55.14062500000001 -19.5 C-55.14062500000001 -19.5, -55.14062500000001 -19.5, -55.140625 -19.5" stroke="#9370DB" stroke-width="1.3" fill="none" stroke-dasharray="0 0" style=""/></g><g class="label" style="" transform="translate(-62.265625, -12)"><rect/><foreignObject width="124.53125" height="24"><div xmlns="http://www.w3.org/1999/xhtml" style="display: table-cell; white-space: nowrap; line-height: 1.5; max-width: 200px; text-align: center;"><span class="nodeLabel"><p>Riesgo detectado</p></span></div></foreignObject></g></g><g class="node default" id="my-svg-flowchart-TIPO-1" data-look="classic" transform="translate(758, 174.3984375)"><polygon points="77.3984375,0 154.796875,-77.3984375 77.3984375,-154.796875 0,-77.3984375" class="label-container" transform="translate(-76.8984375, 77.3984375)"/><g class="label" style="" transform="translate(-50.3984375, -12)"><rect/><foreignObject width="100.796875" height="24"><div xmlns="http://www.w3.org/1999/xhtml" style="display: table-cell; white-space: nowrap; line-height: 1.5; max-width: 200px; text-align: center;"><span class="nodeLabel"><p>Tipo de riesgo</p></span></div></foreignObject></g></g><g class="node default" id="my-svg-flowchart-DATOS-3" data-look="classic" transform="translate(293, 361.796875)"><rect class="basic label-container" style="" x="-87.8203125" y="-27" width="175.640625" height="54"/><g class="label" style="" transform="translate(-57.8203125, -12)"><rect/><foreignObject width="115.640625" height="24"><div xmlns="http://www.w3.org/1999/xhtml" style="display: table-cell; white-space: nowrap; line-height: 1.5; max-width: 200px; text-align: center;"><span class="nodeLabel"><p>Riesgo de datos</p></span></div></foreignObject></g></g><g class="node default" id="my-svg-flowchart-LOAD-5" data-look="classic" transform="translate(758, 361.796875)"><rect class="basic label-container" style="" x="-130" y="-39" width="260" height="78"/><g class="label" style="" transform="translate(-100, -24)"><rect/><foreignObject width="200" height="48"><div xmlns="http://www.w3.org/1999/xhtml" style="display: table; white-space: break-spaces; line-height: 1.5; max-width: 200px; text-align: center; width: 200px;"><span class="nodeLabel"><p>Riesgo carga-uso (load-use)</p></span></div></foreignObject></g></g><g class="node default" id="my-svg-flowchart-CTRL-7" data-look="classic" transform="translate(1180.203125, 361.796875)"><rect class="basic label-container" style="" x="-92.2578125" y="-27" width="184.515625" height="54"/><g class="label" style="" transform="translate(-62.2578125, -12)"><rect/><foreignObject width="124.515625" height="24"><div xmlns="http://www.w3.org/1999/xhtml" style="display: table-cell; white-space: nowrap; line-height: 1.5; max-width: 200px; text-align: center;"><span class="nodeLabel"><p>Riesgo de control</p></span></div></foreignObject></g></g><g class="node default" id="my-svg-flowchart-FWD1-9" data-look="classic" transform="translate(138, 511.1640625)"><rect class="basic label-container" style="" x="-130" y="-39" width="260" height="78"/><g class="label" style="" transform="translate(-100, -24)"><rect/><foreignObject width="200" height="48"><div xmlns="http://www.w3.org/1999/xhtml" style="display: table; white-space: break-spaces; line-height: 1.5; max-width: 200px; text-align: center; width: 200px;"><span class="nodeLabel"><p>Distancia 1: forwarding desde EX/MEM.alu_out</p></span></div></foreignObject></g></g><g class="node default" id="my-svg-flowchart-FWD2-11" data-look="classic" transform="translate(448, 511.1640625)"><rect class="basic label-container" style="" x="-130" y="-51" width="260" height="102"/><g class="label" style="" transform="translate(-100, -36)"><rect/><foreignObject width="200" height="72"><div xmlns="http://www.w3.org/1999/xhtml" style="display: table; white-space: break-spaces; line-height: 1.5; max-width: 200px; text-align: center; width: 200px;"><span class="nodeLabel"><p>Distancia 2 y 3: banco ya actualizado (WB antes que EX)</p></span></div></foreignObject></g></g><g class="node default" id="my-svg-flowchart-DET-13" data-look="classic" transform="translate(758, 511.1640625)"><rect class="basic label-container" style="" x="-130" y="-39" width="260" height="78"/><g class="label" style="" transform="translate(-100, -24)"><rect/><foreignObject width="200" height="48"><div xmlns="http://www.w3.org/1999/xhtml" style="display: table; white-space: break-spaces; line-height: 1.5; max-width: 200px; text-align: center; width: 200px;"><span class="nodeLabel"><p>ID detecta: lw en EX cuyo destino es fuente actual</p></span></div></foreignObject></g></g><g class="node default" id="my-svg-flowchart-BUB-15" data-look="classic" transform="translate(758, 681.53125)"><rect class="basic label-container" style="" x="-130" y="-39" width="260" height="78"/><g class="label" style="" transform="translate(-100, -24)"><rect/><foreignObject width="200" height="48"><div xmlns="http://www.w3.org/1999/xhtml" style="display: table; white-space: break-spaces; line-height: 1.5; max-width: 200px; text-align: center; width: 200px;"><span class="nodeLabel"><p>Burbuja (id_ex.valid=false) + stall 1 ciclo</p></span></div></foreignObject></g></g><g class="node default" id="my-svg-flowchart-BR-17" data-look="classic" transform="translate(1068, 511.1640625)"><polygon points="60.3671875,0 120.734375,-60.3671875 60.3671875,-120.734375 0,-60.3671875" class="label-container" transform="translate(-59.8671875, 60.3671875)"/><g class="label" style="" transform="translate(-33.3671875, -12)"><rect/><foreignObject width="66.734375" height="24"><div xmlns="http://www.w3.org/1999/xhtml" style="display: table-cell; white-space: nowrap; line-height: 1.5; max-width: 200px; text-align: center;"><span class="nodeLabel"><p>beq / bne</p></span></div></foreignObject></g></g><g class="node default" id="my-svg-flowchart-FLUSH-19" data-look="classic" transform="translate(1068, 681.53125)"><rect class="basic label-container" style="" x="-130" y="-39" width="260" height="78"/><g class="label" style="" transform="translate(-100, -24)"><rect/><foreignObject width="200" height="48"><div xmlns="http://www.w3.org/1999/xhtml" style="display: table; white-space: break-spaces; line-height: 1.5; max-width: 200px; text-align: center; width: 200px;"><span class="nodeLabel"><p>Si se toma: flush de IF/ID y PC = destino</p></span></div></foreignObject></g></g><g class="node default" id="my-svg-flowchart-JMP-21" data-look="classic" transform="translate(1292.40625, 511.1640625)"><rect class="basic label-container" style="" x="-114.0390625" y="-27" width="228.078125" height="54"/><g class="label" style="" transform="translate(-84.0390625, -12)"><rect/><foreignObject width="168.078125" height="24"><div xmlns="http://www.w3.org/1999/xhtml" style="display: table-cell; white-space: nowrap; line-height: 1.5; max-width: 200px; text-align: center;"><span class="nodeLabel"><p>j / jr: se resuelven en ID</p></span></div></foreignObject></g></g></g></g></g><defs><filter id="my-svg-drop-shadow" height="130%" width="130%"><feDropShadow dx="4" dy="4" stdDeviation="0" flood-opacity="0.06" flood-color="#000000"/></filter></defs><defs><filter id="my-svg-drop-shadow-small" height="150%" width="150%"><feDropShadow dx="2" dy="2" stdDeviation="0" flood-opacity="0.06" flood-color="#000000"/></filter></defs></svg>